<svg width="369" height="353" viewBox="0 0 369 353" fill="none" xmlns="http://www.w3.org/2000/svg">
<path fill-rule="evenodd" clip-rule="evenodd" d="M234.145 132.783C231.98 132.733 230.093 131.294 229.472 129.219L193.101 7.7553C191.712 3.11523 185.196 2.96392 183.593 7.53448L141.623 127.179C140.906 129.223 138.954 130.572 136.789 130.522L10.0309 127.578C5.18859 127.466 3.03135 133.615 6.88275 136.552L107.701 213.441C109.424 214.754 110.105 217.027 109.388 219.071L67.4173 338.716C65.814 343.286 70.9961 347.238 74.9797 344.483L179.259 272.358C181.041 271.126 183.413 271.181 185.136 272.495L285.954 349.383C289.806 352.32 295.166 348.613 293.776 343.973L257.406 222.509C256.785 220.434 257.57 218.195 259.352 216.963L363.631 144.838C367.615 142.083 365.745 135.84 360.903 135.727L234.145 132.783ZM217.064 154.457C214.899 154.407 213.012 152.968 212.391 150.892L191.113 79.8326C189.723 75.1926 183.208 75.0412 181.605 79.6118L157.051 149.607C156.334 151.651 154.382 153.001 152.217 152.951L78.0597 151.228C73.2174 151.116 71.0601 157.266 74.9115 160.203L133.894 205.185C135.616 206.498 136.297 208.771 135.58 210.816L111.026 280.811C109.422 285.381 114.604 289.333 118.588 286.578L179.595 244.383C181.376 243.151 183.749 243.206 185.471 244.52L244.453 289.501C248.304 292.439 253.664 288.732 252.275 284.091L230.997 213.032C230.376 210.957 231.161 208.717 232.943 207.485L293.95 165.29C297.933 162.535 296.064 156.292 291.222 156.179L217.064 154.457Z" fill="url(#paint0_linear_204_12)" fill-opacity="0.5"/>
<defs>
<linearGradient id="paint0_linear_204_12" x1="348.5" y1="140.5" x2="65.3842" y2="324.322" gradientUnits="userSpaceOnUse">
<stop offset="0.346871" stop-color="#FCDF4F"/>
<stop offset="0.928216" stop-color="#8325B0"/>
</linearGradient>
</defs>
</svg>
