<svg width="267" height="267" viewBox="0 0 267 267" fill="none" xmlns="http://www.w3.org/2000/svg">
<path fill-rule="evenodd" clip-rule="evenodd" d="M171.736 113.261C169.616 112.693 168.114 110.808 168.034 108.615L165.282 33.7138C165.101 28.7935 158.666 27.0694 156.049 31.2401L116.216 94.7301C115.049 96.5894 112.806 97.4705 110.686 96.9024L41.2455 78.2958C36.6308 77.0593 33.0762 82.3797 35.985 86.1697L80.9684 144.78C82.2406 146.437 82.3479 148.711 81.2374 150.481L40.9788 214.648C38.3905 218.774 42.6274 223.788 47.1271 221.925L114.193 194.154C116.284 193.289 118.695 193.935 120.073 195.73L164.268 253.313C167.234 257.177 173.41 254.952 173.232 250.085L170.45 174.386C170.373 172.297 171.603 170.382 173.534 169.582L241.796 141.316C246.21 139.489 245.792 133.104 241.177 131.867L171.736 113.261ZM158.086 124.542C155.966 123.974 154.464 122.09 154.383 119.896L152.889 79.2132C152.708 74.2928 146.273 72.5687 143.657 76.7395L122.02 111.225C120.854 113.084 118.611 113.965 116.491 113.397L78.529 103.225C73.9143 101.989 70.3597 107.309 73.2685 111.099L98.0199 143.348C99.2922 145.006 99.3994 147.28 98.2889 149.05L76.228 184.212C73.6397 188.338 77.8766 193.352 82.3763 191.489L118.741 176.431C120.831 175.565 123.243 176.212 124.62 178.006L148.584 209.229C151.549 213.093 157.726 210.868 157.547 206.001L156.023 164.52C155.946 162.431 157.176 160.516 159.107 159.716L196.667 144.163C201.081 142.336 200.663 135.951 196.048 134.714L158.086 124.542Z" fill="url(#paint0_linear_204_34)" fill-opacity="0.5"/>
<defs>
<linearGradient id="paint0_linear_204_34" x1="161.579" y1="29.0678" x2="50.6781" y2="232.166" gradientUnits="userSpaceOnUse">
<stop offset="0.290662" stop-color="#FCDF4F"/>
<stop offset="0.997221" stop-color="#8325B0"/>
</linearGradient>
</defs>
</svg>
